<?xml version="1.0" encoding="UTF-8"?>
<svg xmlns="http://www.w3.org/2000/svg" width="224.87999pt"
     height="74.999997pt" viewBox="0 0 224.87999 74.999997" version="1.2">
    <defs>
        <clipPath id="clip1">
            <path d="M 0 5 L 224 5 L 224 69 L 0 69 Z M 0 5 "/>
        </clipPath>
        <clipPath id="clip2">
            <path d="M 1.195312 3.277344 L 224.539062 7.410156 L 223.34375 71.863281 L 0.00390625 67.730469 Z M 1.195312 3.277344 "/>
        </clipPath>
        <clipPath id="clip3">
            <path d="M 1.195312 3.277344 L 224.539062 7.410156 L 223.34375 71.863281 L 0.00390625 67.730469 Z M 1.195312 3.277344 "/>
        </clipPath>
        <clipPath id="clip4">
            <path d="M 174 65 L 179 65 L 179 67 L 174 67 Z M 174 65 "/>
        </clipPath>
        <clipPath id="clip5">
            <path d="M 1.195312 3.277344 L 224.539062 7.410156 L 223.34375 71.863281 L 0.00390625 67.730469 Z M 1.195312 3.277344 "/>
        </clipPath>
        <clipPath id="clip6">
            <path d="M 1.195312 3.277344 L 224.539062 7.410156 L 223.34375 71.863281 L 0.00390625 67.730469 Z M 1.195312 3.277344 "/>
        </clipPath>
        <clipPath id="clip7">
            <path d="M 177 69 L 179 69 L 179 71 L 177 71 Z M 177 69 "/>
        </clipPath>
        <clipPath id="clip8">
            <path d="M 1.195312 3.277344 L 224.539062 7.410156 L 223.34375 71.863281 L 0.00390625 67.730469 Z M 1.195312 3.277344 "/>
        </clipPath>
        <clipPath id="clip9">
            <path d="M 1.195312 3.277344 L 224.539062 7.410156 L 223.34375 71.863281 L 0.00390625 67.730469 Z M 1.195312 3.277344 "/>
        </clipPath>
        <clipPath id="clip10">
            <path d="M 159 67 L 168 67 L 168 71 L 159 71 Z M 159 67 "/>
        </clipPath>
        <clipPath id="clip11">
            <path d="M 1.195312 3.277344 L 224.539062 7.410156 L 223.34375 71.863281 L 0.00390625 67.730469 Z M 1.195312 3.277344 "/>
        </clipPath>
        <clipPath id="clip12">
            <path d="M 1.195312 3.277344 L 224.539062 7.410156 L 223.34375 71.863281 L 0.00390625 67.730469 Z M 1.195312 3.277344 "/>
        </clipPath>
        <clipPath id="clip13">
            <path d="M 170 68 L 172 68 L 172 70 L 170 70 Z M 170 68 "/>
        </clipPath>
        <clipPath id="clip14">
            <path d="M 1.195312 3.277344 L 224.539062 7.410156 L 223.34375 71.863281 L 0.00390625 67.730469 Z M 1.195312 3.277344 "/>
        </clipPath>
        <clipPath id="clip15">
            <path d="M 1.195312 3.277344 L 224.539062 7.410156 L 223.34375 71.863281 L 0.00390625 67.730469 Z M 1.195312 3.277344 "/>
        </clipPath>
        <clipPath id="clip16">
            <path d="M 188 65 L 190 65 L 190 67 L 188 67 Z M 188 65 "/>
        </clipPath>
        <clipPath id="clip17">
            <path d="M 1.195312 3.277344 L 224.539062 7.410156 L 223.34375 71.863281 L 0.00390625 67.730469 Z M 1.195312 3.277344 "/>
        </clipPath>
        <clipPath id="clip18">
            <path d="M 1.195312 3.277344 L 224.539062 7.410156 L 223.34375 71.863281 L 0.00390625 67.730469 Z M 1.195312 3.277344 "/>
        </clipPath>
        <clipPath id="clip19">
            <path d="M 9 6 L 11 6 L 11 8 L 9 8 Z M 9 6 "/>
        </clipPath>
        <clipPath id="clip20">
            <path d="M 1.195312 3.277344 L 224.539062 7.410156 L 223.34375 71.863281 L 0.00390625 67.730469 Z M 1.195312 3.277344 "/>
        </clipPath>
        <clipPath id="clip21">
            <path d="M 1.195312 3.277344 L 224.539062 7.410156 L 223.34375 71.863281 L 0.00390625 67.730469 Z M 1.195312 3.277344 "/>
        </clipPath>
    </defs>
    <g id="surface1">
        <g clip-path="url(#clip1)" clip-rule="nonzero">
            <g clip-path="url(#clip2)" clip-rule="nonzero">
                <g clip-path="url(#clip3)" clip-rule="nonzero">
                    <path style=" stroke:none;fill-rule:nonzero;fill:rgb(100%,100%,100%);fill-opacity:1;"
                          d="M 157.304688 58.839844 C 157.3125 59.007812 157.328125 59.179688 157.351562 59.347656 C 157.007812 59.550781 156.667969 59.472656 156.652344 59.097656 C 156.636719 58.695312 156.957031 58.605469 157.304688 58.839844 Z M 197.148438 29.273438 C 196.648438 28.808594 196.507812 28.167969 196.722656 27.597656 C 196.953125 27 197.578125 26.625 198.207031 26.890625 C 198.855469 27.167969 199.414062 27.664062 200.007812 28.070312 C 199.574219 28.441406 199.121094 28.792969 198.707031 29.191406 C 198.195312 29.6875 197.691406 29.78125 197.148438 29.273438 Z M 2.058594 43.972656 C 4.050781 45.066406 6.296875 45.875 7.945312 47.355469 C 9.1875 48.464844 10 48.980469 11.472656 48.148438 C 12.070312 47.8125 12.816406 48.101562 13.152344 48.574219 C 14.457031 50.398438 16.300781 50.691406 18.332031 50.734375 C 20.640625 50.789062 22.957031 50.894531 25.257812 51.109375 C 26.472656 51.222656 27.683594 51.554688 28.855469 51.917969 C 29.46875 52.105469 29.761719 52.652344 29.59375 53.394531 C 29.269531 54.808594 28.667969 55.402344 27.441406 55.289062 C 26.683594 55.214844 25.882812 54.78125 25.1875 54.921875 C 23.648438 55.242188 22.179688 55.613281 20.75 54.589844 C 20.542969 54.445312 20.070312 54.363281 19.921875 54.492188 C 18.34375 55.828125 16.558594 55.265625 15.101562 54.632812 C 12.785156 53.632812 10.621094 54.296875 8.398438 54.296875 C 8.320312 55.746094 9.269531 56.328125 10.0625 56.476562 C 12.324219 56.894531 14.464844 57.800781 16.875 57.699219 C 19.78125 57.578125 22.699219 57.710938 25.589844 58.496094 C 27.78125 59.089844 30.132812 59.476562 32.386719 59.386719 C 36.558594 59.226562 40.574219 60.972656 44.757812 60.207031 C 48.175781 61.144531 51.832031 59.886719 55.21875 61.378906 C 55.839844 61.648438 56.734375 61.285156 57.503906 61.246094 C 58.425781 61.203125 59.359375 61.085938 60.269531 61.183594 C 64.535156 61.65625 68.785156 62.324219 73.101562 61.84375 C 73.691406 61.777344 74.308594 62.019531 74.910156 62.089844 C 76.75 62.300781 78.59375 62.710938 80.425781 62.664062 C 86.59375 62.5 92.714844 63.894531 98.894531 63.234375 C 99.339844 63.183594 99.835938 63.277344 100.261719 63.4375 C 103.636719 64.714844 107.171875 64.882812 110.707031 64.851562 C 111.96875 64.839844 113.171875 64.886719 114.347656 65.308594 C 115.964844 65.886719 117.519531 66.472656 119.21875 65.359375 C 119.867188 64.933594 120.644531 65.507812 121.335938 65.914062 C 122.96875 66.867188 124.65625 67.476562 126.421875 66.097656 C 127.261719 65.445312 128.445312 65.582031 129.0625 66.09375 C 131.238281 67.886719 133.585938 67.675781 136.078125 67.265625 C 136.957031 67.125 137.90625 67.386719 138.816406 67.496094 C 142.472656 67.933594 146.136719 68.230469 149.816406 67.832031 C 150.351562 66.8125 149.488281 64.683594 151.914062 65.152344 C 154.4375 63.648438 157.101562 63.054688 160.066406 63.378906 C 160.597656 63.4375 161.371094 62.304688 162.328125 62.917969 C 161.976562 65.433594 161.976562 65.433594 164.476562 65.558594 C 166.304688 65.585938 168.128906 65.636719 169.957031 65.621094 C 170.386719 65.617188 170.859375 65.40625 170.683594 64.789062 C 170.5625 64.359375 170.476562 63.683594 170.199219 63.574219 C 169.234375 63.199219 168.191406 62.777344 167.136719 63.105469 C 165.75 63.539062 164.445312 63.464844 163.15625 62.832031 C 163.132812 62.453125 163.109375 62.074219 163.082031 61.695312 C 163.820312 61.566406 164.570312 61.28125 165.292969 61.34375 C 166.671875 61.46875 167.164062 60.78125 167.339844 59.582031 C 167.382812 59.292969 167.558594 59.019531 167.671875 58.742188 C 170.144531 58.359375 172.601562 58.4375 175.046875 58.949219 C 175.855469 60.367188 175.914062 60.382812 176.902344 59.351562 C 178.335938 59.15625 179.769531 58.964844 181.199219 58.769531 C 181.964844 59.53125 183 59.660156 183.964844 59.867188 C 184.539062 59.992188 185.140625 59.671875 184.640625 58.910156 C 184.277344 58.363281 184.351562 57.824219 184.40625 57.253906 C 186.171875 57.617188 187.9375 57.976562 189.703125 58.339844 C 191.515625 56.988281 193.1875 58.949219 194.957031 58.582031 C 195.257812 58.515625 195.566406 58.492188 195.863281 58.410156 C 198.253906 57.769531 200.640625 57.703125 203.023438 58.476562 C 204.042969 58.921875 204.890625 58.371094 205.769531 57.988281 C 206.617188 57.660156 206.40625 57.285156 205.8125 56.894531 C 204.816406 56.082031 203.726562 57.144531 202.707031 56.738281 C 202.148438 56.496094 201.507812 56.355469 201.039062 55.992188 C 199.425781 54.769531 197.664062 54.640625 195.785156 55.085938 C 195.335938 55.191406 194.882812 55.285156 194.425781 55.335938 C 193.265625 55.46875 192.316406 55.15625 191.714844 54.050781 C 191.503906 53.664062 191.238281 53.257812 190.890625 53.015625 C 190.382812 52.660156 189.726562 52.378906 190.101562 51.667969 C 190.257812 51.363281 190.875 51.15625 191.285156 51.15625 C 192.648438 51.164062 194.019531 50.753906 195.386719 51.285156 C 195.972656 51.511719 196.785156 51.347656 196.976562 50.746094 C 197.570312 48.894531 199.035156 49.078125 200.371094 49.226562 C 202.898438 49.5 205.269531 49.191406 207.449219 47.84375 C 208.289062 47.324219 209.167969 47.34375 210.109375 47.382812 C 211.484375 47.441406 212.863281 47.335938 214.238281 47.300781 C 214.730469 47.453125 215.136719 47.304688 215.476562 46.945312 C 216.257812 48.4375 217.605469 48.285156 218.953125 48.058594 C 219.011719 48.046875 219.113281 47.445312 218.996094 47.328125 C 218.671875 47.015625 218.242188 46.816406 217.855469 46.570312 C 217.066406 46.671875 216.28125 46.769531 215.496094 46.863281 C 215.273438 46.566406 215.050781 46.265625 214.828125 45.964844 C 216.191406 44.617188 216.199219 44.617188 217.742188 45.570312 C 219.328125 45.113281 220.914062 44.660156 223.4375 43.9375 C 219.964844 43.242188 217.476562 42.625 214.953125 42.277344 C 212.675781 41.964844 210.433594 41.539062 208.191406 41.058594 C 206.351562 40.664062 205.476562 39.160156 204.21875 38.105469 C 203.90625 37.84375 204.167969 37.1875 204.660156 37.035156 C 205.386719 36.8125 206.144531 36.707031 206.886719 36.550781 C 207.660156 36.582031 208.109375 36.109375 208.480469 35.519531 C 208.777344 35.402344 209.074219 35.289062 209.375 35.171875 C 210.253906 34.960938 211.546875 35.789062 211.871094 34.175781 C 212.195312 33.902344 212.496094 33.59375 212.851562 33.367188 C 213.191406 33.152344 213.824219 33.101562 213.90625 32.84375 C 214.054688 32.386719 213.554688 32.140625 213.128906 32.023438 C 212.140625 31.746094 211.148438 31.484375 210.160156 31.214844 C 209.328125 30.242188 208.09375 30.1875 207.171875 30.574219 C 205.273438 31.367188 204.429688 29.945312 203.269531 29.117188 C 202.761719 29.0625 202.253906 29.011719 201.742188 28.960938 C 201.214844 28.664062 200.6875 28.367188 200.160156 28.070312 C 200.894531 27.589844 201.601562 27.6875 202.292969 28.203125 C 201.601562 27.6875 200.894531 27.59375 200.160156 28.070312 C 200.6875 28.367188 201.214844 28.664062 201.746094 28.960938 C 202.253906 29.011719 202.761719 29.0625 203.269531 29.117188 C 203.230469 28.816406 203.160156 28.523438 203.0625 28.238281 C 203.636719 27.648438 204.390625 27.285156 205.128906 27.589844 C 207.257812 28.46875 209.339844 27.777344 211.4375 27.566406 C 211.972656 27.511719 212.199219 27.121094 212.050781 26.617188 C 211.96875 26.332031 211.78125 25.898438 211.582031 25.859375 C 208.015625 25.179688 204.621094 23.625 200.910156 23.691406 C 200.761719 22.597656 200.609375 21.511719 200.460938 20.421875 C 202.335938 20.394531 204.207031 20.371094 206.078125 20.347656 C 207.148438 20.597656 208.214844 20.648438 208.925781 19.652344 C 209.332031 19.085938 207.9375 18.589844 205.972656 18.691406 C 205.824219 18.664062 205.675781 18.636719 205.527344 18.609375 C 204.941406 18.496094 204.25 18.429688 204.214844 17.667969 C 204.167969 16.722656 204.96875 16.871094 205.5 16.921875 C 206.847656 17.046875 208.1875 17.308594 209.535156 17.4375 C 210.328125 17.511719 210.472656 16.863281 210.5625 16.246094 C 210.648438 15.605469 210.445312 15.058594 209.988281 14.605469 C 210.621094 13.171875 211.460938 13.386719 212.425781 14.269531 C 212.742188 14.558594 213.316406 15.046875 213.457031 14.957031 C 214.125 14.523438 213.683594 13.894531 213.476562 13.382812 C 213.035156 12.304688 212.054688 11.871094 211.058594 11.476562 C 210.359375 10.574219 209.519531 9.90625 208.304688 10.128906 C 205.96875 10.554688 203.699219 10.464844 201.476562 9.535156 C 200.925781 9.300781 200.253906 9.203125 199.660156 9.257812 C 195.003906 9.691406 190.484375 8.945312 185.980469 7.859375 C 185.097656 7.648438 184.109375 7.613281 183.21875 7.769531 C 179.910156 8.34375 176.539062 6.878906 173.253906 8.140625 C 172.867188 8.289062 172.316406 8.167969 171.886719 8.03125 C 168.441406 6.925781 164.867188 7.105469 161.34375 7.089844 C 154.875 7.058594 148.457031 6.222656 141.960938 6.304688 C 136.285156 6.375 130.558594 6.523438 124.847656 5.925781 C 120.722656 5.496094 116.527344 5.707031 112.363281 5.742188 C 108.675781 5.773438 104.945312 6.355469 101.308594 5.972656 C 96.820312 5.5 92.378906 6.695312 87.929688 5.882812 C 87.34375 5.777344 86.707031 6.015625 86.089844 6.074219 C 78.402344 6.816406 70.710938 6.617188 63.003906 6.460938 C 60.386719 6.410156 57.820312 5.972656 55.210938 5.976562 C 48.261719 5.980469 41.316406 5.894531 34.371094 5.890625 C 32.53125 5.890625 30.679688 5.53125 28.832031 6.027344 C 28.273438 6.175781 27.484375 6.21875 27.054688 5.929688 C 25.683594 5.011719 24.402344 5.40625 23.085938 5.90625 C 22.207031 6.242188 21.335938 6.535156 20.382812 6.226562 C 18.554688 5.625 16.699219 6.175781 14.855469 6.140625 C 13.863281 6.125 12.492188 5.703125 12.03125 6.992188 C 11.648438 8.074219 12.617188 8.984375 13.128906 9.894531 C 13.414062 10.402344 13.945312 10.777344 14.355469 11.203125 C 12.84375 13.152344 11.015625 14.457031 8.480469 14.484375 C 7.050781 14.5 5.871094 15.28125 4.597656 15.773438 C 4.839844 16.804688 5.519531 17.289062 6.484375 17.609375 C 9.339844 18.558594 9.351562 18.597656 8.910156 21.363281 C 8.722656 22.582031 8.40625 23.785156 8.15625 24.992188 C 7.894531 26.257812 8.1875 26.675781 9.480469 26.757812 C 10.097656 26.800781 10.730469 26.652344 11.332031 26.746094 C 11.730469 26.8125 12.277344 27.074219 12.417969 27.394531 C 12.664062 27.964844 12.476562 28.613281 12.0625 29.128906 C 11.316406 30.046875 10.3125 30.363281 9.183594 30.265625 C 8.425781 30.199219 7.722656 30.003906 6.9375 30.386719 C 5.953125 30.867188 5.695312 31.574219 6.214844 32.503906 C 7.46875 34.734375 9.4375 36.191406 11.539062 37.460938 C 11.25 38.609375 10.996094 39.621094 10.765625 40.554688 C 9.859375 40.941406 9.027344 40.757812 8.425781 40.371094 C 6.203125 38.933594 4.292969 40.773438 2.226562 40.882812 C 1.492188 40.917969 1.136719 41.898438 1 42.6875 C 0.859375 43.507812 1.53125 43.6875 2.058594 43.972656 "/>
                </g>
            </g>
        </g>
        <g clip-path="url(#clip4)" clip-rule="nonzero">
            <g clip-path="url(#clip5)" clip-rule="nonzero">
                <g clip-path="url(#clip6)" clip-rule="nonzero">
                    <path style=" stroke:none;fill-rule:nonzero;fill:rgb(100%,100%,100%);fill-opacity:1;"
                          d="M 174.847656 65.15625 C 174.765625 65.148438 174.574219 65.398438 174.597656 65.480469 C 174.667969 65.726562 174.792969 66.125 174.949219 66.148438 C 175.910156 66.300781 176.921875 66.554688 178.148438 65.410156 C 176.828125 65.304688 175.839844 65.214844 174.847656 65.15625 "/>
                </g>
            </g>
        </g>
        <g clip-path="url(#clip7)" clip-rule="nonzero">
            <g clip-path="url(#clip8)" clip-rule="nonzero">
                <g clip-path="url(#clip9)" clip-rule="nonzero">
                    <path style=" stroke:none;fill-rule:nonzero;fill:rgb(100%,100%,100%);fill-opacity:1;"
                          d="M 177.867188 69.121094 C 177.394531 69.257812 177.027344 69.527344 177.054688 70.066406 C 177.074219 70.445312 177.34375 70.582031 177.867188 70.449219 C 178.054688 70.1875 178.429688 69.867188 178.546875 69.46875 C 178.632812 69.183594 178.238281 69.015625 177.867188 69.121094 "/>
                </g>
            </g>
        </g>
        <g clip-path="url(#clip10)" clip-rule="nonzero">
            <g clip-path="url(#clip11)" clip-rule="nonzero">
                <g clip-path="url(#clip12)" clip-rule="nonzero">
                    <path style=" stroke:none;fill-rule:nonzero;fill:rgb(100%,100%,100%);fill-opacity:1;"
                          d="M 166.9375 68.789062 C 166.195312 68.605469 165.4375 68.492188 164.6875 68.347656 C 164.617188 68.109375 164.523438 67.875 164.410156 67.652344 C 162.925781 67.75 161.433594 67.792969 159.960938 67.980469 C 159.625 68.023438 159.347656 68.554688 159.042969 68.863281 C 160 70.234375 161.136719 70.730469 162.710938 69.785156 C 163.3125 69.421875 164.054688 69.296875 164.734375 69.066406 C 165.3125 69.226562 165.90625 69.335938 166.453125 69.558594 C 166.902344 69.742188 167.453125 69.957031 167.667969 69.519531 C 167.929688 68.996094 167.304688 68.878906 166.9375 68.789062 "/>
                </g>
            </g>
        </g>
        <g clip-path="url(#clip13)" clip-rule="nonzero">
            <g clip-path="url(#clip14)" clip-rule="nonzero">
                <g clip-path="url(#clip15)" clip-rule="nonzero">
                    <path style=" stroke:none;fill-rule:nonzero;fill:rgb(100%,100%,100%);fill-opacity:1;"
                          d="M 170.902344 68.761719 C 171.035156 69.074219 171.257812 69.15625 171.542969 68.964844 C 171.636719 68.898438 171.757812 68.699219 171.726562 68.652344 C 171.609375 68.472656 171.433594 68.332031 171.277344 68.175781 C 171.152344 68.371094 171.027344 68.566406 170.902344 68.761719 "/>
                </g>
            </g>
        </g>
        <g clip-path="url(#clip16)" clip-rule="nonzero">
            <g clip-path="url(#clip17)" clip-rule="nonzero">
                <g clip-path="url(#clip18)" clip-rule="nonzero">
                    <path style=" stroke:none;fill-rule:nonzero;fill:rgb(100%,100%,100%);fill-opacity:1;"
                          d="M 188.601562 66.226562 C 188.347656 66.535156 188.488281 66.796875 188.878906 66.902344 C 189.125 66.789062 189.519531 66.722656 189.585938 66.539062 C 189.65625 66.347656 189.417969 66.039062 189.316406 65.78125 C 189.070312 65.925781 188.769531 66.019531 188.601562 66.226562 "/>
                </g>
            </g>
        </g>
        <g clip-path="url(#clip19)" clip-rule="nonzero">
            <g clip-path="url(#clip20)" clip-rule="nonzero">
                <g clip-path="url(#clip21)" clip-rule="nonzero">
                    <path style=" stroke:none;fill-rule:nonzero;fill:rgb(100%,100%,100%);fill-opacity:1;"
                          d="M 10.261719 7.039062 C 10.464844 6.761719 10.34375 6.578125 9.96875 6.601562 C 9.859375 6.605469 9.765625 6.757812 9.664062 6.84375 C 9.738281 6.941406 9.792969 7.097656 9.886719 7.125 C 10 7.15625 10.203125 7.121094 10.261719 7.039062 "/>
                </g>
            </g>
        </g>
    </g>
</svg>