<?xml version="1.0" encoding="UTF-8" standalone="no"?>
<svg
   xmlns:dc="http://purl.org/dc/elements/1.1/"
   xmlns:cc="http://creativecommons.org/ns#"
   xmlns:rdf="http://www.w3.org/1999/02/22-rdf-syntax-ns#"
   xmlns:svg="http://www.w3.org/2000/svg"
   xmlns="http://www.w3.org/2000/svg"
   xmlns:xlink="http://www.w3.org/1999/xlink"
   xmlns:sodipodi="http://sodipodi.sourceforge.net/DTD/sodipodi-0.dtd"
   xmlns:inkscape="http://www.inkscape.org/namespaces/inkscape"
   width="98.748688mm"
   height="19.6mm"
   viewBox="0 0 98.748688 19.600001"
   version="1.1"
   id="svg8"
   inkscape:version="1.0.1 (3bc2e813f5, 2020-09-07)"
   sodipodi:docname="logoV2_aufBlau.svg">
  <defs
     id="defs2">
    <linearGradient
       inkscape:collect="always"
       id="linearGradient2938">
      <stop
         style="stop-color:#3b82f6;stop-opacity:1"
         offset="0"
         id="stop2934" />
      <stop
         style="stop-color:#60a5fa;stop-opacity:1"
         offset="1"
         id="stop2936" />
    </linearGradient>
    <linearGradient
       inkscape:collect="always"
       id="linearGradient2921">
      <stop
         style="stop-color:#60a5fa;stop-opacity:1;"
         offset="0"
         id="stop2917" />
      <stop
         style="stop-color:#60a5fa;stop-opacity:0;"
         offset="1"
         id="stop2919" />
    </linearGradient>
    <linearGradient
       inkscape:collect="always"
       xlink:href="#linearGradient2921"
       id="linearGradient2923"
       x1="-65.882256"
       y1="59.067684"
       x2="-46.132999"
       y2="59.067684"
       gradientUnits="userSpaceOnUse" />
    <linearGradient
       inkscape:collect="always"
       xlink:href="#linearGradient2938"
       id="linearGradient2932"
       gradientUnits="userSpaceOnUse"
       x1="-70.866798"
       y1="59.186596"
       x2="-46.132999"
       y2="59.067684" />
  </defs>
  <sodipodi:namedview
     id="base"
     pagecolor="#ffffff"
     bordercolor="#666666"
     borderopacity="1.0"
     inkscape:pageopacity="0.0"
     inkscape:pageshadow="2"
     inkscape:zoom="2.8"
     inkscape:cx="100.77408"
     inkscape:cy="37.163127"
     inkscape:document-units="mm"
     inkscape:current-layer="g2950"
     inkscape:document-rotation="0"
     showgrid="false"
     inkscape:window-width="3000"
     inkscape:window-height="1890"
     inkscape:window-x="-12"
     inkscape:window-y="-12"
     inkscape:window-maximized="1"
     fit-margin-top="0"
     fit-margin-left="0"
     fit-margin-right="0"
     fit-margin-bottom="0" />
  <metadata
     id="metadata5">
    <rdf:RDF>
      <cc:Work
         rdf:about="">
        <dc:format>image/svg+xml</dc:format>
        <dc:type
           rdf:resource="http://purl.org/dc/dcmitype/StillImage" />
        <dc:title />
      </cc:Work>
    </rdf:RDF>
  </metadata>
  <g
     inkscape:groupmode="layer"
     id="layer2"
     inkscape:label="Box"
     style="display:inline"
     transform="translate(-23.771701,-46.141228)">
    <rect
       style="display:inline;fill:#ffffff;fill-opacity:1;fill-rule:nonzero;stroke:#ffffff;stroke-width:0;stroke-linejoin:round;stroke-miterlimit:4;stroke-dasharray:none"
       id="rect938"
       width="19.597681"
       height="19.597639"
       x="-65.730743"
       y="49.269848"
       rx="2.4568677"
       ry="2.4568677"
       transform="matrix(1.6033478e-4,-0.99999999,0.99999999,1.5788309e-4,0,0)" />
  </g>
  <g
     inkscape:label="Schrift"
     inkscape:groupmode="layer"
     id="layer1"
     style="display:inline"
     transform="translate(-23.771701,-46.141228)">
    <g
       id="g2950">
      <g
         aria-label="oF.courz"
         id="text835"
         style="font-style:normal;font-weight:normal;font-size:25.4px;line-height:1.25;font-family:sans-serif;fill:#000000;fill-opacity:1;stroke:none;stroke-width:0.264583">
        <path
           d="m 30.553501,51.479253 q 2.413,0 4.4704,1.6764 1.0414,0.8382 1.6764,2.1844 0.635,1.3462 0.635,2.921 0,1.6256 -0.6604,2.9718 -0.635,1.3208 -1.651,2.1336 -1.016,0.7874 -2.1844,1.2192 -1.1684,0.4318 -2.286,0.4318 -1.5748,0 -3.0734,-0.7112 -1.5494,-0.7366 -2.6162,-2.3114 -1.0922,-1.5748 -1.0922,-3.7338 0,-2.159 1.0922,-3.7338 1.0668,-1.524 2.5654,-2.286 1.4986,-0.762 3.1242,-0.762 z m -3.4798,6.7818 q 0,1.778 1.016,2.8194 1.0414,1.0414 2.4638,1.0414 1.397,0 2.4384,-1.0414 1.0414,-1.0922 1.0414,-2.8194 0,-1.778 -1.0414,-2.8194 -1.0414,-1.0668 -2.4384,-1.0668 -1.4478,0 -2.4638,1.0668 -1.016,1.016 -1.016,2.8194 z"
           style="fill:#ffffff;fill-opacity:1"
           id="path884" />
        <path
           d="m 48.63826,52.838153 q 0,0.59055 -0.4191,0.9906 -0.40005,0.40005 -0.97155,0.40005 h -4.62915 v 3.02895 h 3.81 q 0.5715,0 0.97155,0.381 0.40005,0.381 0.40005,0.9525 0,0.55245 -0.40005,0.93345 -0.40005,0.381 -0.97155,0.381 h -3.81 v 3.5052 q 0,0.6477 -0.4572,1.12395 -0.43815,0.4572 -1.08585,0.4572 -0.6477,0 -1.12395,-0.4572 -0.4572,-0.47625 -0.4572,-1.12395 v -10.1727 q 0,-0.761999 0.47625,-1.238249 0.4953,-0.4953 1.2573,-0.4953 h 6.0198 q 0.5715,0 0.97155,0.40005 0.4191,0.381 0.4191,0.933449 z"
           style="fill:#ffffff;fill-opacity:1"
           id="path886" />
        <path
           d="m 52.077825,64.945487 q -0.804335,0 -1.375836,-0.550335 -0.550334,-0.571501 -0.550334,-1.375835 0,-0.783168 0.571501,-1.333502 0.571501,-0.571501 1.354669,-0.571501 0.783168,0 1.333502,0.571501 0.571501,0.550334 0.571501,1.333502 0,0.804334 -0.571501,1.375835 -0.550334,0.550335 -1.333502,0.550335 z"
           style="font-size:21.1667px;fill:#60a5fa;fill-opacity:1"
           id="path888" />
        <path
           d="m 66.183289,60.750253 q 0.5334,0 0.9398,0.381 0.4064,0.3556 0.4064,0.889 0,0.2794 -0.127,0.5588 -0.127,0.254 -0.2286,0.381 -0.0762,0.1016 -0.3302,0.3556 l -0.254,0.2286 q -1.651,1.4224 -3.9624,1.4224 -1.1938,0 -2.3622,-0.4318 -1.1684,-0.4318 -2.1844,-1.2192 -0.9906,-0.8128 -1.6256,-2.1336 -0.6096,-1.3208 -0.6096,-2.9464 0,-2.1844 1.0668,-3.7338 2.0574,-3.0226 5.715,-3.0226 2.413,0 3.9624,1.397 0.0254,0.0254 0.2032,0.2032 0.1778,0.1524 0.254,0.254 0.1016,0.1016 0.2286,0.2794 0.127,0.1778 0.1778,0.381 0.0762,0.2032 0.0762,0.4318 0,0.5334 -0.4064,0.9144 -0.4064,0.3556 -0.9398,0.3556 -0.6858,0 -1.2954,-0.5334 -0.7874,-0.7874 -2.1336,-0.7874 -1.5748,0 -2.5908,1.0414 -1.016,1.0414 -1.016,2.8194 0,1.7526 1.016,2.794 1.016,1.0414 2.5908,1.0414 1.3462,0 2.1336,-0.7874 0.6096,-0.5334 1.2954,-0.5334 z"
           style="fill:#60a5fa;fill-opacity:1"
           id="path890" />
        <path
           d="m 76.343265,51.479253 q 2.413,0 4.4704,1.6764 1.0414,0.8382 1.6764,2.1844 0.635,1.3462 0.635,2.921 0,1.6256 -0.6604,2.9718 -0.635,1.3208 -1.651,2.1336 -1.016,0.7874 -2.1844,1.2192 -1.1684,0.4318 -2.286,0.4318 -1.5748,0 -3.0734,-0.7112 -1.5494,-0.7366 -2.6162,-2.3114 -1.0922,-1.5748 -1.0922,-3.7338 0,-2.159 1.0922,-3.7338 1.0668,-1.524 2.5654,-2.286 1.4986,-0.762 3.1242,-0.762 z m -3.4798,6.7818 q 0,1.778 1.016,2.8194 1.0414,1.0414 2.4638,1.0414 1.397,0 2.4384,-1.0414 1.0414,-1.0922 1.0414,-2.8194 0,-1.778 -1.0414,-2.8194 -1.0414,-1.0668 -2.4384,-1.0668 -1.4478,0 -2.4638,1.0668 -1.016,1.016 -1.016,2.8194 z"
           style="fill:#ffffff;fill-opacity:1"
           id="path892" />
        <path
           d="m 90.491024,65.017453 q -2.2098,0 -3.5306,-1.524 -1.2954,-1.5494 -1.2954,-4.5466 v -5.7404 q 0,-0.6858 0.4826,-1.1684 0.508,-0.4826 1.1938,-0.4826 0.6604,0 1.143,0.4826 0.508,0.4826 0.508,1.1684 v 5.7404 q 0,1.5748 0.7112,2.413 0.7366,0.8128 1.9812,0.8128 0.7874,0 1.4224,-0.3302 0.634999,-0.3302 0.965199,-0.8382 0.3556,-0.508 0.5334,-0.9144 0.1778,-0.4318 0.2286,-0.762 v -6.1214 q 0,-0.6858 0.4826,-1.1684 0.508,-0.4826 1.1684,-0.4826 0.6858,0 1.1684,0.4826 0.508,0.4826 0.508,1.1684 v 10.0838 q 0,0.6858 -0.508,1.1938 -0.4826,0.4826 -1.1684,0.4826 -0.6604,0 -1.1684,-0.4826 -0.4826,-0.508 -0.4826,-1.1938 v -1.27 q -0.127,0.9144 -1.3208,1.9558 -1.193799,1.0414 -3.022599,1.0414 z"
           style="fill:#ffffff;fill-opacity:1"
           id="path894" />
        <path
           d="m 108.49961,51.504653 q 0.7112,0 1.143,0.4318 0.4318,0.4318 0.4318,1.0922 0,1.5748 -2.1336,1.5748 -1.4224,0 -2.3622,0.8636 -0.9144,0.8128 -1.0414,1.7272 v 6.1214 q 0,0.6604 -0.508,1.1684 -0.4826,0.4826 -1.143,0.4826 -0.6858,0 -1.1938,-0.4826 -0.4826,-0.508 -0.4826,-1.1684 v -10.0838 q 0,-0.6858 0.4826,-1.1684 0.508,-0.508 1.1938,-0.508 0.6604,0 1.143,0.508 0.508,0.4826 0.508,1.1684 v 1.27 q 0.1016,-0.8636 1.2446,-1.9304 1.1684,-1.0668 2.7178,-1.0668 z"
           style="fill:#ffffff;fill-opacity:1"
           id="path896" />
        <path
           d="m 113.57959,51.631653 h 6.35 q 1.5494,0 2.1844,1.27 0.6604,1.27 -0.4318,2.4892 l -6.3246,6.5786 h 5.715 q 0.5842,0 1.016,0.4318 0.4318,0.4064 0.4318,0.9906 0,0.6096 -0.4318,1.0414 -0.4318,0.4064 -1.016,0.4064 h -6.8326 q -1.5748,0 -2.1844,-1.27 -0.5842,-1.27 0.5334,-2.54 l 6.2738,-6.5532 h -5.2832 q -0.6096,0 -1.0414,-0.4064 -0.4064,-0.4064 -0.4064,-1.016 0,-0.5842 0.4318,-0.9906 0.4318,-0.4318 1.016,-0.4318 z"
           style="fill:#ffffff;fill-opacity:1"
           id="path898" />
      </g>
    </g>
  </g>
</svg>
